<?xml version="1.0" standalone="no"?>
<!DOCTYPE svg PUBLIC "-//W3C//DTD SVG 1.0//EN" "http://www.w3.org/TR/2001/REC-SVG-20010904/DTD/svg10.dtd">
<svg xmlns="http://www.w3.org/2000/svg" xmlns:xlink="http://www.w3.org/1999/xlink" id="body_1" width="50" height="50">

<g transform="matrix(0.09765625 0 0 0.09765625 3.125 -0)">
    <path d="M224 256C 294.7 256 352 198.7 352 128C 352 57.300003 294.7 0 224 0C 153.29999 0 96 57.3 96 128C 96 198.7 153.3 256 224 256zM178.3 304C 79.8 304 0 383.8 0 482.3C 0 498.7 13.3 512 29.7 512L29.7 512L418.3 512C 434.69998 512 448 498.7 448 482.3C 448 383.8 368.2 304 269.7 304L269.7 304L178.3 304z" stroke="none" fill="#000000" fill-rule="nonzero" />
</g>
</svg>